<svg width="65" height="65" viewBox="0 0 65 65" fill="none" xmlns="http://www.w3.org/2000/svg">
<circle cx="32.5" cy="32.5" r="32.5" fill="#FFB30F"/>
<path d="M37.6982 21.5596C38.4065 21.599 39.0546 21.7872 39.6514 22.293C40.6294 23.122 40.9048 24.182 40.8984 25.2646C40.8921 26.3309 40.6091 27.4625 40.4512 28.4248C40.2612 29.5831 40.2622 30.8117 40.6318 31.9111C40.6686 32.0206 40.7472 32.2036 40.7568 32.3818C40.7729 32.6786 40.5399 32.9325 40.2666 32.9795C40.1206 33.0045 39.9646 32.9715 39.8281 32.8662C39.6948 32.7633 39.5924 32.601 39.5244 32.3857L39.5225 32.3809L39.374 31.8652L39.373 31.8613C38.9348 30.2141 39.0791 29.0147 39.4209 27.3633C39.5951 26.5218 39.8078 25.6603 39.6982 24.8525C39.638 24.4084 39.4457 23.9138 39.1484 23.5166C38.8512 23.1196 38.4624 22.8364 38.0127 22.7734C37.451 22.6948 37.0547 22.7578 36.4766 22.7773L33.7959 22.8682C33.7216 22.8709 33.647 22.8801 33.5605 22.8906C33.4772 22.9008 33.3823 22.912 33.2852 22.9131H33.2832L30.0439 22.9092H30.0371C29.9655 22.9066 29.8965 22.8981 29.8359 22.8906C29.7731 22.8828 29.7196 22.8763 29.666 22.873V22.8721L27.5449 22.7832C27.2878 22.7831 27.1373 22.7799 27.0391 22.7881C27.0311 22.7888 27.0238 22.7903 27.0176 22.791C27.0178 22.8215 27.0195 22.8607 27.0225 22.917C27.0292 23.0449 27.0372 23.2253 27.0176 23.4697C26.9151 24.7491 26.3967 26.3353 25.1025 27.0049C24.6223 27.2533 24.0702 27.3598 23.5244 27.4053C23.0273 27.4466 22.5195 27.4375 22.0645 27.4346C22.0463 27.4857 22.0285 27.5493 22.0137 27.626C21.9879 27.7596 21.971 27.9213 21.9619 28.1055C21.9438 28.4741 21.9575 28.9171 21.9873 29.375C22.0476 30.3006 22.1675 31.2332 22.21 31.7451C22.2821 32.6143 22.3035 33.5114 22.2471 34.3867V34.3926L21.9639 37.4521C21.891 38.5387 21.9337 39.8616 22.1729 40.8896L22.2705 41.2305C22.5097 41.9821 22.8203 42.4467 23.2412 42.749C23.7288 43.0992 24.3969 43.255 25.3682 43.333C26.1926 43.3992 27.0086 43.3889 27.8486 43.3877L29.457 43.3818L30.5547 43.3242C30.9246 43.302 31.2989 43.2798 31.6699 43.2656L32.001 43.2344C32.1445 43.2211 32.3147 43.2092 32.4785 43.2158C32.6381 43.2223 32.8145 43.2475 32.959 43.3223C33.1167 43.4039 33.2378 43.5478 33.248 43.7627C33.2565 43.9412 33.2045 44.0915 33.0986 44.2061C32.9982 44.3147 32.8656 44.373 32.7422 44.4062C32.5048 44.4701 32.2113 44.4604 32.0576 44.4658L32.0586 44.4668L29.6875 44.5791H29.6777L25.8633 44.5732H25.8545L25.8467 44.5723L25.2256 44.5186V44.5176C24.2231 44.4325 23.0207 44.252 22.2061 43.4697C20.8669 42.1836 20.7487 40.1631 20.75 38.5166C20.7503 38.1237 20.7399 37.7091 20.7666 37.3018L20.7676 37.2959L21.043 34.3818L21.0537 33.6299L21.0605 32.8691C21.0612 32.6191 21.0571 32.3721 21.0371 32.1279L20.8535 30.1826C20.7905 29.5502 20.7059 28.7922 20.7617 28.0674C20.8177 27.3412 21.0164 26.6187 21.543 26.0742L21.5498 26.0664L25.4238 22.4639L25.4297 22.459C25.9734 21.987 26.3503 21.7359 26.7773 21.6279C27.1949 21.5224 27.6446 21.5601 28.2988 21.6055L28.2979 21.6064L28.8164 21.627L28.8223 21.6279C29.365 21.6662 29.8931 21.7135 30.4238 21.7158L33.9873 21.708V21.709C34.0443 21.7064 34.1022 21.6992 34.167 21.6914C34.2326 21.6835 34.3072 21.6743 34.3828 21.6699H34.3838L36.5576 21.5537L36.5684 21.5527V21.5537L37.3906 21.5508L37.6982 21.5596ZM23.1455 26.2129C23.472 26.2023 23.7839 26.172 24.0986 26.084C24.656 25.9279 25.08 25.5322 25.3691 25.0225C25.5847 24.6425 25.7211 24.2049 25.7783 23.7725L23.1455 26.2129Z" fill="black" stroke="black" stroke-width="0.4"/>
<path d="M39.3945 33.4434C45.2268 33.3239 48.3083 40.4042 44.2471 44.5635C43.0513 45.7881 41.4147 46.4545 39.7148 46.4746L39.7129 46.4756V46.4746C35.9923 46.4721 33.05 43.704 33.04 39.8965C33.031 36.4087 35.8715 33.4987 39.3945 33.4434ZM39.2334 34.6387L39.1982 34.6406L39.1992 34.6416C37.7772 34.7613 36.4355 35.3708 35.5117 36.4551C32.4013 40.1061 35.3657 45.6266 39.9268 45.2705L39.958 45.2676L39.9668 45.2666C42.5333 45.153 44.6162 43.0533 44.8682 40.5195C45.1898 37.2821 42.5188 34.4881 39.2334 34.6387ZM25.6631 37.0586C25.7456 37.0629 25.8102 37.0664 25.8564 37.0664H31.3838L32.0078 37.0615H32.0088C32.2469 37.0603 32.4399 37.1129 32.5771 37.2227C32.7196 37.3367 32.7779 37.4933 32.7773 37.6436C32.7768 37.7883 32.7226 37.9277 32.6436 38.0342C32.5664 38.1381 32.4455 38.2359 32.293 38.2539C32.0839 38.2786 31.8257 38.2587 31.6553 38.2588L25.9785 38.2578L25.1074 38.2588H25.0977L25.0889 38.2578C24.7971 38.2312 24.6013 38.0346 24.5508 37.7979C24.5011 37.5646 24.5951 37.3047 24.835 37.1572L24.8369 37.1562L24.8604 37.1426C24.9415 37.0932 25.0401 37.0721 25.123 37.0615C25.2117 37.0503 25.3082 37.0478 25.3994 37.0488C25.4913 37.0499 25.5835 37.0544 25.6631 37.0586ZM25.4707 34.4824H29.1152L33.4639 34.4805H33.4746L33.4854 34.4814C33.7659 34.5107 33.9344 34.7197 33.9736 34.9434C34.012 35.1626 33.932 35.414 33.7148 35.5654L33.6914 35.5811L33.6904 35.5801C33.5642 35.6664 33.4164 35.6833 33.3037 35.6855C33.2443 35.6867 33.1853 35.6842 33.1348 35.6816L33.002 35.6768H29.4414L25.5293 35.6797C25.4035 35.6802 25.213 35.6934 25.0508 35.6738C24.8829 35.6536 24.7489 35.5745 24.6592 35.459C24.5719 35.3465 24.5342 35.2097 24.5352 35.0801C24.537 34.8298 24.6925 34.5357 25.0215 34.4902C25.1739 34.4692 25.3588 34.4822 25.4707 34.4824ZM36.6367 31.8848C36.9837 31.8948 37.1948 32.1774 37.2051 32.4541C37.2103 32.5959 37.1642 32.7442 37.0557 32.8623C36.9466 32.9809 36.7881 33.0548 36.5938 33.0742L36.583 33.0752H36.5732L26.2891 33.0762C25.9173 33.0764 25.4844 33.1028 25.0879 33.0771C24.908 33.0654 24.7562 32.997 24.6543 32.8779C24.5533 32.7598 24.5177 32.6106 24.5352 32.4688C24.5703 32.1823 24.8151 31.9296 25.1855 31.8916L25.1953 31.8906H25.2051L36.6309 31.8848H36.6367ZM36.666 29.3145C36.8103 29.3345 36.9331 29.3857 37.0264 29.4707C37.1541 29.5872 37.2002 29.7439 37.1885 29.8916C37.1662 30.1704 36.9387 30.4485 36.6182 30.5039L36.6016 30.5068H36.584L25.6455 30.4961C25.4815 30.4971 25.2732 30.5096 25.0859 30.5C24.7356 30.4821 24.5304 30.2012 24.5352 29.918C24.5403 29.6203 24.7652 29.3538 25.1602 29.3066L25.1719 29.3057H25.1846L36.5146 29.3047L36.666 29.3145ZM34.6797 26.6895C34.7804 26.686 34.8975 26.6861 35.0078 26.709C35.1199 26.7323 35.2418 26.7826 35.334 26.8906C35.4268 26.9995 35.4681 27.1416 35.4697 27.3057C35.471 27.4363 35.4408 27.5536 35.373 27.6504C35.3055 27.7468 35.2125 27.8049 35.1211 27.8398C34.9506 27.905 34.7436 27.903 34.6074 27.9033H34.6064L33.8535 27.9023L28.0967 27.9014C28.0631 27.9013 28.0199 27.9029 27.9658 27.9053C27.914 27.9076 27.8539 27.9107 27.7939 27.9111C27.6861 27.9119 27.533 27.9068 27.417 27.8516C27.1447 27.7218 27.0609 27.4483 27.0986 27.2207C27.1352 27.0007 27.2956 26.7665 27.5693 26.7236L27.5771 26.7227L27.5967 26.7217C27.9694 26.6744 28.3957 26.7056 28.7324 26.7051H28.7334L34.4023 26.7002C34.4888 26.6999 34.5674 26.6933 34.6797 26.6895Z" fill="black" stroke="black" stroke-width="0.4"/>
<path d="M43.0352 37.092C43.3526 37.0548 43.6052 37.1986 43.7012 37.4475C43.7917 37.6822 43.7221 37.9601 43.5234 38.1584L43.5205 38.1614L39.5859 41.9338C39.5298 41.9872 39.4193 42.1093 39.29 42.1731L39.2842 42.176L39.2617 42.1848L39.2627 42.1858C38.9408 42.3366 38.6371 42.2894 38.374 42.1858C38.1275 42.0886 37.871 41.9191 37.6836 41.8176V41.8186L36.2002 41.0178L36.1934 41.0139V41.0129L36.0967 40.9563H36.0957C36.049 40.9285 35.9527 40.8755 35.8711 40.8147C35.7963 40.7589 35.6812 40.6589 35.6494 40.5139L35.6475 40.5071L35.6445 40.4905L35.6328 40.3928C35.6226 40.1704 35.7327 39.9912 35.8955 39.886C36.0714 39.7723 36.305 39.7449 36.5107 39.8137H36.5098C36.6234 39.8517 36.7308 39.9083 36.8252 39.9622C36.9269 40.0202 37.0044 40.0694 37.0898 40.1145H37.0908L38.124 40.6672L38.126 40.6682C38.3553 40.7947 38.5684 40.9174 38.7881 41.0286C38.8662 40.9575 38.9414 40.8773 39.0391 40.7844L42.3184 37.6262C42.4838 37.4666 42.6937 37.2236 42.9824 37.1057L43.0078 37.0959L43.0352 37.092Z" fill="black" stroke="black" stroke-width="0.4"/>
</svg>
